<?xml version="1.0" encoding="UTF-8" standalone="no"?>
<!-- Generator: Adobe Illustrator 16.0.0, SVG Export Plug-In . SVG Version: 6.00 Build 0)  -->

<svg xmlns:dc="http://purl.org/dc/elements/1.1/" xmlns:cc="http://creativecommons.org/ns#" xmlns:rdf="http://www.w3.org/1999/02/22-rdf-syntax-ns#" xmlns:svg="http://www.w3.org/2000/svg" xmlns="http://www.w3.org/2000/svg" xmlns:sodipodi="http://sodipodi.sourceforge.net/DTD/sodipodi-0.dtd" xmlns:inkscape="http://www.inkscape.org/namespaces/inkscape" version="1.1" id="Logo_-_EDIT_THIS_SMART_OBJECT_xA0_Image_1_" x="0px" y="0px" width="190" height="95" viewBox="0 0 190 95" xml:space="preserve" inkscape:version="0.48.2 r9819" sodipodi:docname="logo.svg"><metadata id="metadata3037"><rdf:RDF><cc:Work rdf:about=""><dc:format>image/svg+xml</dc:format><dc:type rdf:resource="http://purl.org/dc/dcmitype/StillImage" /></cc:Work></rdf:RDF></metadata><defs id="defs3035" /><sodipodi:namedview pagecolor="#ffffff" bordercolor="#666666" borderopacity="1" objecttolerance="10" gridtolerance="10" guidetolerance="10" inkscape:pageopacity="0" inkscape:pageshadow="2" inkscape:window-width="1492" inkscape:window-height="884" id="namedview3033" showgrid="true" inkscape:zoom="4" inkscape:cx="90.914235" inkscape:cy="56.316938" inkscape:window-x="0" inkscape:window-y="22" inkscape:window-maximized="0" inkscape:current-layer="Logo_-_EDIT_THIS_SMART_OBJECT_xA0_Image_1_"><inkscape:grid type="xygrid" id="grid3205" empspacing="5" visible="true" enabled="true" snapvisiblegridlinesonly="true" /></sodipodi:namedview>

<path style="fill:#f78547;fill-opacity:1" d="m 112.66158,49.63514 c 0,-0.0737 0.24092,-0.21064 0.53539,-0.30433 0.58967,-0.18766 1.83988,-1.30764 1.83988,-1.64827 0,-0.11847 0.0635,-0.21542 0.14116,-0.21542 0.0776,0 0.30375,-0.27601 0.50246,-0.61337 0.31238,-0.53031 0.3613,-0.94051 0.3613,-3.02997 0,-1.78508 -0.0597,-2.43477 -0.2284,-2.48607 -0.12562,-0.0382 -0.22839,-0.20793 -0.22839,-0.3772 0,-0.16927 -0.10805,-0.40694 -0.2401,-0.52816 -0.13206,-0.12122 -0.35147,-0.70824 -0.48759,-1.3045 -0.13611,-0.59626 -0.32972,-1.13388 -0.43022,-1.19473 -0.10624,-0.0643 -0.18897,-1.09405 -0.1976,-2.45978 -0.009,-1.29204 -0.073,-2.34927 -0.14417,-2.34944 -0.14802,-2.4e-4 -1.36318,1.07825 -1.823,1.61816 -0.43065,0.50564 -0.69474,1.47333 -0.69623,2.55117 l -10e-4,0.91731 -0.73035,-0.75054 c -0.40168,-0.4128 -0.73045,-0.84436 -0.7306,-0.95903 -1.4e-4,-0.11464 -0.0772,-0.20846 -0.17114,-0.20846 -0.094,0 -0.27494,-0.26269 -0.40212,-0.58377 -0.12719,-0.32105 -0.29695,-0.58373 -0.37725,-0.58373 -0.0803,0 -0.14601,-0.10723 -0.14601,-0.23828 0,-0.13103 -0.10804,-0.33743 -0.24011,-0.45865 -0.13206,-0.12122 -0.34936,-0.69168 -0.48289,-1.26769 -0.13352,-0.576 -0.31324,-1.08705 -0.39937,-1.13565 -0.20803,-0.11737 -0.20286,-3.73793 0.006,-3.73793 0.0891,0 0.20472,-0.20642 0.25699,-0.45868 0.0523,-0.25227 0.1534,-0.62753 0.22475,-0.83392 0.0986,-0.28527 0.0575,-0.37526 -0.17136,-0.37526 -0.16561,0 -0.34724,0.10973 -0.40361,0.24383 -0.0564,0.1341 -0.25936,0.28928 -0.45106,0.34481 -0.19169,0.0555 -0.34855,0.19582 -0.34855,0.31173 0,0.11592 -0.20336,0.31012 -0.45193,0.43155 -0.24858,0.12144 -0.54097,0.46702 -0.64977,0.76794 -0.10878,0.30093 -0.27901,0.57186 -0.37826,0.60207 -0.0992,0.0302 -0.27787,0.52289 -0.39695,1.09487 -0.1191,0.57199 -0.27993,1.03997 -0.35742,1.03997 -0.0775,0 -0.14092,0.78806 -0.14092,1.75124 0,0.96319 0.0701,1.75126 0.15573,1.75126 0.0856,0 0.26112,0.77977 0.38993,1.73283 0.18816,1.39224 0.1894,1.94951 0.007,2.83535 -0.12533,0.60637 -0.30081,1.10252 -0.38993,1.10252 -0.0891,0 -0.16202,0.10815 -0.16202,0.24033 0,0.13218 -0.0617,0.27514 -0.13704,0.31765 -0.0754,0.0425 -0.13703,-0.78139 -0.13703,-1.83089 0,-1.2101 -0.0739,-1.95171 -0.2019,-2.02719 -0.11107,-0.0654 -0.30378,-0.40419 -0.42829,-0.75277 -0.26442,-0.74029 -0.92808,-1.45104 -1.35492,-1.45104 -0.21869,0 -0.29879,0.15384 -0.29879,0.57391 0,0.31564 0.0822,0.62027 0.1827,0.67697 0.22363,0.12616 0.24263,0.86385 0.0254,0.98637 -0.0865,0.0488 -0.20007,0.57505 -0.25235,1.16941 -0.0594,0.67595 -0.2057,1.18171 -0.39053,1.35045 -0.16255,0.14837 -0.34569,0.45216 -0.40699,0.67507 -0.0613,0.22292 -0.18144,0.40531 -0.26701,0.40531 -0.0855,0 -0.25763,0.31897 -0.38239,0.70882 -0.12476,0.38986 -0.31304,0.76238 -0.41844,0.82777 -0.25865,0.16058 -0.25728,4.10543 0.002,4.26511 0.10618,0.0655 0.30115,0.36309 0.43325,0.66122 0.13209,0.29813 0.31243,0.54204 0.40074,0.54204 0.0883,0 0.16054,0.1126 0.16054,0.25019 0,0.1376 0.0822,0.25019 0.1827,0.25019 0.10051,0 0.18272,0.075 0.18272,0.16678 0,0.0917 -0.12333,0.16678 -0.27407,0.16678 -0.15074,0 -0.27406,-0.0632 -0.27406,-0.14038 0,-0.0772 -0.32887,-0.23033 -0.73085,-0.34027 -0.40196,-0.10994 -0.73085,-0.26685 -0.73085,-0.34873 0,-0.0819 -0.185,-0.20156 -0.41111,-0.26596 -0.2261,-0.0644 -0.45221,-0.16329 -0.50246,-0.21973 -0.0502,-0.0564 -0.50245,-0.36127 -1.00492,-0.67741 -0.50246,-0.31614 -0.98392,-0.68019 -1.06994,-0.80899 -0.086,-0.12881 -0.3213,-0.35798 -0.522845,-0.50931 -0.576165,-0.43254 -0.756865,-0.60493 -1.147898,-1.09505 -0.200975,-0.25191 -0.506864,-0.61096 -0.67974,-0.79786 -0.17287,-0.18692 -0.368727,-0.49631 -0.43521,-0.68753 -0.06649,-0.19122 -0.233367,-0.45034 -0.370858,-0.57584 -0.137468,-0.1255 -0.249958,-0.33541 -0.249958,-0.46645 0,-0.13104 -0.0681,-0.23825 -0.151328,-0.23825 -0.168773,0 -0.579528,-1.47682 -0.579528,-2.08366 0,-0.21467 -0.08514,-0.41624 -0.189215,-0.44791 -0.227397,-0.0692 -0.262643,-4.81606 -0.03683,-4.96094 0.08248,-0.0529 0.248409,-0.72926 0.368756,-1.50296 0.12035,-0.77369 0.291834,-1.44919 0.381105,-1.50108 0.08926,-0.0519 0.220691,-0.41331 0.292074,-0.80317 0.07139,-0.38986 0.191668,-0.70883 0.26727,-0.70883 0.0756,0 0.245955,-0.4128 0.378553,-0.91733 0.132595,-0.50452 0.302929,-0.91731 0.378542,-0.91731 0.0756,0 0.193048,-0.3002 0.26095,-0.66716 0.0679,-0.36691 0.182109,-0.66712 0.253768,-0.66712 0.07166,0 0.239856,-0.56291 0.373772,-1.25089 0.133913,-0.68801 0.306654,-1.25088 0.383849,-1.25088 0.0772,0 0.199422,-0.46912 0.271618,-1.04242 0.07221,-0.57333 0.220367,-1.09382 0.329253,-1.15666 0.28038,-0.16179 0.28933,-6.27577 0.01,-6.43807 -0.112994,-0.0655 -0.266923,-0.37754 -0.34203,-0.6934 -0.07512,-0.31587 -0.253809,-0.68131 -0.397078,-0.81208 -0.143277,-0.13079 -0.219384,-0.27531 -0.169154,-0.32118 0.05025,-0.0459 0.219109,0.0332 0.375217,0.17572 0.15612,0.1425 0.447805,0.3066 0.648195,0.36466 0.20038,0.0581 0.36433,0.17555 0.36433,0.2611 0,0.0856 0.0873,0.15555 0.19405,0.15555 0.19242,0 2.34361,1.95522 2.95774,2.68831 0.17588,0.20992 0.31976,0.47899 0.31976,0.59792 0,0.11895 0.0758,0.21626 0.16853,0.21626 0.0927,0 0.26786,0.28145 0.38925,0.62545 0.12137,0.34399 0.28895,0.70463 0.3724,0.80142 0.2606,0.30226 0.57404,2.59347 0.49362,3.60834 -0.0574,0.72473 -0.0163,0.96908 0.16326,0.96908 0.13204,0 0.24006,-0.0624 0.24006,-0.13862 0,-0.0762 0.1965,-0.23459 0.43665,-0.35193 0.24018,-0.11732 0.5485,-0.40919 0.68518,-0.64858 0.13669,-0.23935 0.35494,-0.55007 0.48503,-0.69047 0.76597,-0.82653 1.49925,-1.72158 1.49925,-1.82996 0,-0.10982 0.17767,-0.33086 0.89597,-1.11462 0.0945,-0.10316 0.27351,-0.49719 0.39774,-0.87562 0.1242,-0.37843 0.28187,-0.68806 0.35038,-0.68806 0.0685,0 0.23306,-0.30021 0.36575,-0.66714 0.13265,-0.36693 0.30652,-0.66715 0.38637,-0.66715 0.0799,0 0.19917,-0.26267 0.26517,-0.58374 0.066,-0.32107 0.17996,-0.58375 0.25327,-0.58375 0.0733,0 0.23775,-0.43155 0.36543,-0.95901 0.12767,-0.52746 0.30518,-1.04176 0.39446,-1.14288 0.0893,-0.10111 0.21546,-0.64758 0.28036,-1.21437 0.0649,-0.56678 0.18824,-1.07014 0.2741,-1.11857 0.20418,-0.1152 0.20371,-5.19217 -5.4e-4,-5.30738 -0.0861,-0.0486 -0.2041,-0.50852 -0.26217,-1.02207 -0.0581,-0.51355 -0.17955,-1.02236 -0.26999,-1.13069 -0.0904,-0.10833 -0.26612,-0.62852 -0.39042,-1.15598 -0.12435,-0.52746 -0.29278,-0.95902 -0.37434,-0.95902 -0.0816,0 -0.18761,-0.18763 -0.23564,-0.41696 -0.048,-0.22933 -0.0165,-0.41696 0.0701,-0.41696 0.0866,0 0.15737,0.0659 0.15737,0.14655 0,0.0806 0.24665,0.23981 0.54814,0.3538 0.30146,0.11399 0.54811,0.27556 0.54811,0.35904 0,0.0835 0.13746,0.19994 0.30546,0.25878 0.37335,0.13078 2.25252,1.83985 2.25252,2.04861 0,0.0825 0.14803,0.24808 0.32894,0.36795 0.18092,0.11987 0.43756,0.46186 0.57031,0.75999 0.13276,0.29813 0.30806,0.54205 0.38961,0.54205 0.0815,0 0.20573,0.16537 0.27601,0.36749 0.0703,0.20212 0.23702,0.46722 0.37055,0.58911 0.13354,0.12189 0.29627,0.4819 0.36166,0.80001 0.0654,0.31811 0.19192,0.57839 0.28125,0.57839 0.0893,0 0.16287,0.13134 0.16349,0.29187 5.4e-4,0.16053 0.12795,0.51389 0.28297,0.78524 0.15501,0.27134 0.37811,1.22828 0.49577,2.12651 0.11768,0.89823 0.27813,1.63315 0.35654,1.63315 0.0784,0 0.14258,0.86312 0.14258,1.91803 0,1.1675 -0.0715,1.91803 -0.18271,1.91803 -0.1005,0 -0.18271,0.27637 -0.18271,0.61415 0,0.97708 -0.39956,3.55548 -0.55099,3.55548 -0.0758,0 -0.19425,0.41279 -0.26332,0.91732 -0.069,0.50454 -0.20185,0.91733 -0.29512,0.91733 -0.21971,0 -0.22356,4.11948 -0.004,4.24336 0.0911,0.0514 0.22211,0.4686 0.2912,0.92718 0.0691,0.45854 0.18306,0.83373 0.25329,0.83373 0.0702,0 0.22662,0.33773 0.34757,0.75053 0.12097,0.4128 0.29593,0.75054 0.38882,0.75054 0.0929,0 0.22306,0.22515 0.28928,0.50036 0.0662,0.27519 0.23719,0.50035 0.37994,0.50035 0.31023,0 0.30579,0.14371 0.0635,-2.05386 -0.20215,-1.83352 0.0352,-5.42446 0.37115,-5.61397 0.0862,-0.0487 0.21459,-0.36974 0.28525,-0.71352 0.0707,-0.34379 0.195,-0.62506 0.27633,-0.62506 0.0813,0 0.20049,-0.21881 0.26484,-0.48623 0.0644,-0.26743 0.31743,-0.69898 0.56245,-0.95902 0.24498,-0.26003 0.44553,-0.5271 0.44564,-0.59349 2.6e-4,-0.2057 1.6413,-1.63054 1.87784,-1.63057 0.16979,-2e-5 0.22359,0.91691 0.22359,3.81032 0,2.59263 0.0663,3.88522 0.20731,4.04456 0.114,0.12885 0.2644,0.47817 0.33425,0.77629 0.0698,0.29813 0.19612,0.54204 0.28064,0.54204 0.0845,0 0.20774,0.22472 0.27382,0.49938 0.0661,0.27465 0.21652,0.5561 0.33429,0.62545 0.28179,0.16593 0.61533,0.64932 0.97889,1.41866 0.16255,0.34399 0.35771,0.62545 0.43367,0.62545 0.076,0 0.24349,0.37526 0.37224,0.83392 0.12879,0.45866 0.29167,0.83393 0.36199,0.83393 0.0703,0 0.1807,0.25723 0.24531,0.57162 0.0646,0.31438 0.19261,0.59582 0.28443,0.62543 0.0918,0.0296 0.27149,0.86066 0.39927,1.84678 0.12774,0.98613 0.29666,1.79295 0.37537,1.79295 0.0787,0 0.1431,0.41278 0.1431,0.91731 0,0.50452 -0.0822,0.91732 -0.18271,0.91732 -0.1005,0 -0.18272,0.28771 -0.18272,0.63934 0,0.83198 -0.37502,2.52958 -0.55884,2.52958 -0.0786,0 -0.19715,0.22516 -0.26336,0.50035 -0.0662,0.27521 -0.18716,0.50037 -0.26879,0.50037 -0.0816,0 -0.195,0.16886 -0.25198,0.37527 -0.14085,0.51021 -0.54598,0.97839 -1.96829,2.2746 -1.40438,1.27988 -2.16847,1.84795 -2.48985,1.8511 -0.12562,0.001 -0.22839,0.0773 -0.22839,0.16902 0,0.0917 -0.11924,0.16678 -0.26499,0.16678 -0.14574,0 -0.33074,0.10197 -0.4111,0.22659 -0.0804,0.12461 -0.45444,0.31806 -0.83128,0.42989 -0.37685,0.11183 -0.68518,0.27254 -0.68518,0.35717 0,0.0846 -0.13145,0.15385 -0.29213,0.15385 -0.16068,0 -0.55122,0.10681 -0.86789,0.23736 -0.77524,0.31964 -3.04237,0.76403 -3.04237,0.59638 z" id="path3039" inkscape:connector-curvature="0" /><path style="fill:#f78547;fill-opacity:1" d="m 114.08506,48.87596 c 0.74675,-0.58347 0.94255,-0.83634 1.67215,-2.15938 0.30986,-0.5619 0.36851,-0.9993 0.3719,-2.7729 0.004,-1.87761 -0.0446,-2.20601 -0.44432,-3.03116 -0.93477,-1.92939 -1.3786,-3.73277 -1.38159,-5.61351 -0.004,-2.32687 -0.1138,-2.46609 -1.19239,-1.50767 -1.14937,1.02129 -1.4147,1.54031 -1.5344,3.00152 l -0.10247,1.25089 -0.83668,-1.0007 c -0.92698,-1.10871 -2.00672,-3.03963 -2.44238,-4.36778 -0.37653,-1.14793 -0.3823,-3.96581 -0.01,-4.7797 0.34862,-0.76165 0.35035,-1.27662 0.005,-1.27662 -0.41369,0 -2.18466,1.66275 -2.62682,2.46628 -0.21639,0.39327 -0.48842,1.03121 -0.60448,1.41767 -0.33268,1.10764 -0.4022,3.90638 -0.1231,4.95567 0.32579,1.2249 0.30738,4.26429 -0.0298,4.92018 -0.24516,0.47683 -0.26297,0.41805 -0.37907,-1.2509 -0.0916,-1.31666 -0.22343,-1.93749 -0.5313,-2.50179 -0.5267,-0.96539 -1.07022,-1.50105 -1.52306,-1.50105 -0.32962,0 -0.35024,0.0817 -0.24726,0.9811 0.16924,1.47805 -0.23529,3.02855 -1.26707,4.85639 l -0.89439,1.58445 0,2.08481 0,2.08482 0.6829,0.959 c 0.37558,0.52748 0.65178,0.95904 0.61376,0.95904 -0.038,0 -0.38642,-0.13252 -0.77425,-0.29443 -2.54208,-1.06146 -5.699833,-3.77731 -6.97329,-5.9974 -0.432723,-0.75441 -0.869485,-1.76763 -0.970566,-2.2516 -0.815906,-3.90681 -0.463195,-6.79284 1.391749,-11.38743 0.957548,-2.37177 1.489249,-4.02582 2.205397,-6.86073 0.40948,-1.621 0.29752,-6.15879 -0.175815,-7.12556 -0.611365,-1.2487 -0.02655,-0.98303 2.028155,0.92143 2.61453,2.42329 3.15166,3.45864 3.29522,6.35176 0.0535,1.07785 0.17602,1.95974 0.27233,1.95974 0.42944,0 1.27213,-0.76767 2.32873,-2.12137 0.6287,-0.8055 1.29931,-1.65217 1.49021,-1.88149 0.3684,-0.44255 2.06622,-3.52196 2.48281,-4.50322 1.10775,-2.60919 1.51204,-4.5936 1.51204,-7.42194 0,-2.80414 -0.48231,-5.07909 -1.55133,-7.31761 -0.14551,-0.30461 -0.13571,-0.30476 0.3814,-0.006 0.29191,0.16876 0.8161,0.55337 1.1649,0.85469 0.34879,0.30131 0.68896,0.54785 0.75595,0.54785 0.14124,0 1.85461,1.93921 2.58177,2.92209 0.62592,0.84603 1.6987,3.09776 1.94518,4.08289 0.5446,2.17645 0.76974,3.69879 0.76779,5.19166 -0.001,0.91199 -0.0514,1.73085 -0.11151,1.81968 -0.0602,0.0888 -0.18684,0.84523 -0.28157,1.68087 -0.0947,0.83564 -0.37747,2.22354 -0.62834,3.08423 -0.75276,2.58254 -0.61581,5.48888 0.36064,7.65405 0.52943,1.17393 1.09536,2.08483 1.29527,2.08483 0.13109,0 0.19057,-1.09755 0.18303,-3.37742 -0.0119,-3.61626 0.0697,-4.03912 1.17783,-6.10303 0.79752,-1.48532 2.47124,-3.21757 2.81003,-2.90832 0.0616,0.0562 0.112,1.5055 0.112,3.22059 0,1.7151 0.0803,3.50479 0.17841,3.97707 0.19403,0.93397 0.9664,2.57417 1.46271,3.10628 0.67787,0.72673 1.57486,2.47205 2.44299,4.75339 1.12889,2.96657 0.93917,6.88526 -0.45118,9.31932 -1.54426,2.70353 -5.27058,5.45596 -8.74888,6.46234 -1.84325,0.53329 -2.02727,0.50149 -1.13449,-0.19606 l 0,0 z" id="path3041" inkscape:connector-curvature="0" /><path style="fill:#f78547;fill-opacity:1" d="" id="path3043" inkscape:connector-curvature="0" /><path style="fill:#f78547;fill-opacity:1" d="m 113.09717,49.41703 c 0.82729,-0.47747 1.44195,-1.04534 2.079,-1.9207 l 0.68288,-0.93831 0.0597,-2.40962 c 0.0561,-2.2639 0.0318,-2.47091 -0.40172,-3.4232 -0.82711,-1.81704 -1.17883,-3.27139 -1.29107,-5.33857 -0.0594,-1.09451 -0.14967,-2.02798 -0.20053,-2.07443 -0.15803,-0.14423 -1.758,1.36835 -2.00895,1.89925 -0.13089,0.27688 -0.29667,1.04723 -0.36842,1.71189 -0.15591,1.44414 -0.19532,1.43125 -1.5965,-0.52286 -1.11282,-1.55192 -1.45193,-2.21942 -1.96106,-3.86013 -0.40347,-1.30018 -0.48429,-3.45071 -0.15787,-4.20099 0.33198,-0.76307 0.49894,-1.54954 0.34717,-1.63515 -0.21735,-0.12262 -1.80844,1.22387 -2.31957,1.96297 -0.64551,0.93342 -0.97212,1.85647 -1.14477,3.23516 -0.14096,1.12556 -0.0914,1.89029 0.33225,5.13244 0.18751,1.4348 -0.002,3.0821 -0.41761,3.62327 -0.22123,0.28831 -0.2504,0.26236 -0.35513,-0.31617 -0.0628,-0.34666 -0.11502,-1.06669 -0.11612,-1.60008 -0.003,-1.16961 -0.55724,-2.5056 -1.31356,-3.163 -0.64283,-0.55876 -0.9637,-0.44741 -0.79184,0.2748 0.3364,1.41378 -0.0523,3.09699 -1.19343,5.16774 l -0.90556,1.64331 0,2.00178 c 0,1.94826 0.0147,2.02161 0.54815,2.74317 0.30145,0.40776 0.54811,0.81266 0.54811,0.89979 0,0.0872 0.0822,0.15845 0.18271,0.15845 0.1005,0 0.18271,0.075 0.18271,0.16678 0,0.28235 -0.28383,0.19249 -1.67403,-0.52999 -4.172275,-2.16836 -6.712305,-5.04365 -7.467447,-8.45306 -0.685533,-3.09516 -0.327388,-6.28502 1.126189,-10.03048 0.84364,-2.1738 1.486594,-3.99473 1.884488,-5.33713 0.76307,-2.57444 0.83216,-3.05757 0.83216,-5.81934 0,-2.55856 -0.0368,-2.87597 -0.443204,-3.82259 -0.24377,-0.56778 -0.398677,-1.03234 -0.344236,-1.03234 0.253623,0 1.91156,1.25613 3.01203,2.28205 1.35676,1.26487 2.60721,3.23722 2.79904,4.41501 0.0649,0.3987 0.17394,1.38949 0.24222,2.20179 l 0.12415,1.47692 0.58052,-0.4762 c 1.37249,-1.12585 3.47209,-3.98639 4.75655,-6.48047 1.82179,-3.5374 2.30209,-5.44397 2.2899,-9.0898 -0.009,-2.61495 -0.28334,-4.2012 -1.07335,-6.20041 -0.25121,-0.6357 -0.43079,-1.22291 -0.39909,-1.30491 0.0935,-0.24175 2.80595,1.87496 3.65833,2.85488 1.35134,1.55352 1.70742,2.08521 2.6723,3.99023 0.7326,1.44638 1.56265,5.60393 1.44713,7.24823 -0.1287,1.8322 -0.63235,4.86875 -1.06499,6.42123 -0.46756,1.67777 -0.55634,4.58195 -0.18352,6.00427 0.13223,0.50453 0.57812,1.55528 0.99086,2.33501 l 0.75044,1.41768 0.1104,-3.66929 c 0.10868,-3.61141 0.1192,-3.6883 0.66829,-4.87497 0.68557,-1.48174 1.58436,-2.78269 2.42036,-3.50335 0.8332,-0.71823 1.09954,-0.69905 1.12156,0.0807 0.18996,6.72844 0.22534,7.06955 0.86083,8.29497 0.33225,0.6407 0.71092,1.27865 0.84149,1.41769 0.37455,0.39884 1.5026,2.46837 2.09234,3.83865 0.59571,1.38415 1.1901,4.12962 1.17353,5.42052 -0.0208,1.6141 -0.56809,3.66417 -1.34364,5.03215 -0.77717,1.37089 -2.92699,3.5596 -4.19033,4.26615 -0.35174,0.19671 -0.68062,0.39914 -0.73086,0.44984 -0.13754,0.13879 -0.76484,0.48674 -1.279,0.7094 -0.25122,0.10881 -0.58744,0.29661 -0.74715,0.41734 -0.29195,0.22071 -3.4917,1.04981 -4.00336,1.03733 -0.20696,-0.005 -0.18978,-0.0553 0.0701,-0.20535 l 0,0 z" id="path3045" inkscape:connector-curvature="0" /><path style="fill:#f78547;fill-opacity:1" d="m 113.70752,49.2352 c 0.96014,-0.70881 1.49191,-1.21615 2.04797,-1.95389 0.56915,-0.75513 0.57608,-0.78907 0.62275,-3.04841 l 0.0472,-2.28478 -0.73955,-1.95676 c -0.61552,-1.6286 -0.77518,-2.32928 -0.95201,-4.17788 -0.11683,-1.22163 -0.2725,-2.27596 -0.3459,-2.34297 -0.22078,-0.20153 -1.77391,1.47535 -1.94782,2.10302 -0.089,0.32105 -0.21669,1.01956 -0.28384,1.55224 -0.14366,1.13952 -0.26571,1.1057 -1.36343,-0.37801 C 108.52857,33.68722 107.68399,30.462 108.5022,28 c 0.31168,-0.93785 0.34034,-1.26609 0.11056,-1.26609 -0.2839,0 -2.05398,1.72946 -2.40002,2.345 -0.85342,1.51785 -1.11308,3.80041 -0.71039,6.24444 0.31054,1.8847 0.27198,4.23244 -0.0819,4.98748 -0.16786,0.35807 -0.35729,0.60348 -0.42098,0.54535 -0.0637,-0.0581 -0.18317,-0.83895 -0.26554,-1.73516 -0.16012,-1.74226 -0.5009,-2.68706 -1.23452,-3.42239 -0.66541,-0.66701 -0.82111,-0.5789 -0.69497,0.39332 0.15754,1.21425 -0.40965,3.24187 -1.44127,5.15227 l -0.85559,1.58446 0.097,1.9702 c 0.0866,1.75914 0.14772,2.04014 0.57049,2.62328 0.26039,0.35922 0.47346,0.72352 0.47346,0.80958 0,0.0861 0.10278,0.18997 0.22839,0.23092 0.12561,0.041 0.16722,0.13431 0.0924,0.20749 -0.30421,0.29769 -3.48099,-1.51152 -5.13682,-2.92545 -3.023522,-2.58179 -4.319634,-5.3631 -4.319634,-9.26939 0,-2.22714 0.467967,-4.25679 1.822992,-7.90676 0.595965,-1.60531 1.349441,-3.81938 1.674412,-4.92018 0.56474,-1.91304 0.59099,-2.13769 0.59415,-5.08695 0.003,-2.77699 -0.0367,-3.18142 -0.39714,-4.04454 -0.220254,-0.52746 -0.337687,-0.95902 -0.260975,-0.95902 0.573685,0 3.868875,2.94492 4.671665,4.17508 0.97921,1.50052 1.30738,2.71207 1.43287,5.28998 0.0191,0.38987 0.0924,0.70885 0.16316,0.70885 0.26124,0 2.00943,-1.88976 2.98012,-3.22145 1.28882,-1.76808 3.08975,-5.16256 3.64422,-6.86865 0.68528,-2.10864 0.84948,-3.19585 0.84948,-5.62479 0,-2.45176 -0.26486,-4.07817 -1.00319,-6.16011 -0.25217,-0.7111 -0.45849,-1.37579 -0.45849,-1.47708 0,-0.20812 1.76224,0.9954 2.75714,1.88298 1.03795,0.92598 2.43445,2.71662 3.15251,4.04221 1.20273,2.22037 2.06103,5.99389 1.89146,8.31601 -0.1283,1.75758 -0.56039,4.45057 -1.03178,6.43055 -0.46772,1.96462 -0.50501,4.71735 -0.0817,6.02747 0.16099,0.49823 0.55108,1.42602 0.86685,2.06174 l 0.57414,1.15587 0.12753,-0.65551 c 0.0701,-0.36053 0.13228,-1.67725 0.13807,-2.92605 0.0135,-2.90413 0.18866,-3.72688 1.18837,-5.5809 0.80366,-1.49037 2.23253,-3.07298 2.77452,-3.07298 0.13751,0 0.25142,0.0188 0.25314,0.0417 0.002,0.0229 0.0844,1.76217 0.18382,3.86496 0.20255,4.28568 0.15711,4.12385 1.99307,7.09683 1.31457,2.12867 2.10534,4.13113 2.57483,6.52013 l 0.4119,2.09599 -0.4082,1.90688 c -0.57962,2.70776 -1.34292,3.99212 -3.53104,5.94148 -2.07521,1.84875 -4.29684,3.09386 -6.52616,3.65761 -0.85419,0.216 -1.71749,0.39114 -1.91849,0.38923 -0.33599,-0.004 -0.32864,-0.0306 0.0914,-0.34067 l 0,0 z" id="path3047" inkscape:connector-curvature="0" /><path style="fill:#f78547;fill-opacity:1" d="" id="path3071" inkscape:connector-curvature="0" /><path style="fill:#f78547;fill-opacity:1" d="" id="path3073" inkscape:connector-curvature="0" /><path style="fill:#f78547;fill-opacity:1" d="" id="path3075" inkscape:connector-curvature="0" /><path style="fill:#f78547;fill-opacity:1" d="m 112.18653,49.61865 c 0,-0.0459 0.0435,-0.0834 0.0968,-0.0834 0.0532,0 0.0713,0.0375 0.0403,0.0834 -0.0311,0.0459 -0.0746,0.0834 -0.0968,0.0834 -0.0223,0 -0.0403,-0.0375 -0.0403,-0.0834 z" id="path3119" inkscape:connector-curvature="0" /><path style="fill:#f78547;fill-opacity:1" d="M 107.47228,0.0695 C 107.44638,0.0313 107.50988,0 107.61334,0 c 0.10345,0 0.18809,0.0313 0.18809,0.0695 0,0.0382 -0.0635,0.0695 -0.14105,0.0695 -0.0776,0 -0.16223,-0.0313 -0.1881,-0.0695 l 0,0 z" id="path3127" inkscape:connector-curvature="0" /><text xml:space="preserve" style="font-size:34.97245407px;font-style:normal;font-variant:normal;font-weight:bold;font-stretch:normal;text-align:start;line-height:125%;letter-spacing:0px;word-spacing:0px;writing-mode:lr-tb;text-anchor:start;fill:black;fill-opacity:1;stroke:none;font-family:PT Sans;-inkscape-font-specification:PT Sans Bold" x="1.2196651" y="68.333809" id="text3131" sodipodi:linespacing="125%" transform="scale(1.1110456,0.90005306)"><tspan sodipodi:role="line" id="tspan3133" x="1.2196651" y="68.333809">b2gStudios</tspan></text>
<text xml:space="preserve" style="font-size:13.94436264px;font-style:normal;font-variant:normal;font-weight:normal;font-stretch:normal;line-height:125%;letter-spacing:0px;word-spacing:0px;fill:#f60;fill-opacity:1;stroke:none;font-family:PT Sans;-inkscape-font-specification:PT Sans" x="4.3865128" y="94.84626" id="text3162" sodipodi:linespacing="125%" transform="scale(1.0796996,0.92618354)"><tspan sodipodi:role="line" id="tspan3164" x="4.3865128" y="94.84626">EXPLOSIVE WEB SOLUTIONS</tspan></text>
</svg>